<svg width="48" height="48" viewBox="0 0 48 48" fill="none" xmlns="http://www.w3.org/2000/svg">
<path d="M16.583 9.363C26.371 18.9389 11.8643 27.0354 11.4553 28.5531C11.0462 30.0706 13.3854 35.8482 17.7801 31.614C23.4957 26.107 24.3161 19.9458 31.6557 31.9258C32.4672 33.2655 36.5328 32.352 36.5328 32.352C39.8474 31.2156 38.2375 28.1377 38.2375 28.1377C38.2375 28.1377 33.6917 21.6031 32.5553 17.3888C31.4189 13.1744 34.649 13.1781 32.052 7.82276C30.8782 5.40227 27.1324 4.04866 22.9464 3.96276C17.8706 3.85836 12.6196 5.6015 16.583 9.36315V9.363Z" stroke="#F5F6FA" stroke-width="3.85141" stroke-linejoin="round"/>
<path d="M13.3514 32.7776C13.3514 32.7776 3.54956 42.7688 13.967 44.0473L33.6489 43.9531C44.9185 42.9587 34.3118 32.6834 34.3118 32.6834" stroke="#F5F6FA" stroke-width="3.85141"/>
<path d="M11.6223 14.5193V17.064" stroke="#F5F6FA" stroke-width="7.5592" stroke-linecap="round" stroke-linejoin="round"/>
<path d="M13.1813 42.4128C12.2889 42.2205 11.211 41.6872 10.9363 41.3021C10.6048 40.8373 10.6311 39.7165 10.9947 38.8192C11.3824 37.862 12.2784 36.3915 13.0664 35.4189L13.7497 34.5756L14.7915 34.5603C16.0187 34.5425 16.5426 34.3749 17.614 33.6576C18.4146 33.1216 20.1195 31.402 21.6982 29.5382C23.6122 27.2786 24.4015 26.555 24.9525 26.555C25.9209 26.555 27.8869 28.7026 29.8942 31.9531C30.4746 32.893 30.9412 33.4126 31.4324 33.6662C31.8519 33.8828 32.8423 34.1279 33.3058 34.1299C33.5867 34.1314 33.7021 34.2064 34.0634 34.6244C35.4266 36.2015 36.1974 37.3167 36.7928 38.5737C37.1559 39.3403 37.2291 39.5925 37.2642 40.1994C37.3048 40.8977 37.2971 40.9274 37.004 41.2615C36.5973 41.7246 35.8965 42.0383 34.7669 42.2628C33.8781 42.4394 33.2789 42.4525 23.8355 42.5027C15.148 42.5487 13.7579 42.537 13.1813 42.4128V42.4128Z" fill="#F5F6FA" stroke="#F5F6FA" stroke-width="0.47725" stroke-linecap="round" stroke-linejoin="round"/>
</svg>
