<svg width="48" height="48" viewBox="0 0 48 48" fill="none" xmlns="http://www.w3.org/2000/svg">
<path d="M16.5419 42.6359C23.2487 45.4549 32.0202 39.3958 36.1336 29.1026C40.247 18.8094 38.1446 8.17989 31.4378 5.36091C24.731 2.54192 15.9594 8.60095 11.846 18.8942C7.73264 29.1874 9.83503 39.8169 16.5419 42.6359Z" stroke="#F5F6FA" stroke-width="3.73568" stroke-linecap="round" stroke-linejoin="round"/>
<path d="M21.8028 29.471C23.7722 30.2987 26.3478 28.5196 27.5556 25.4972C28.7634 22.4747 28.1461 19.3536 26.1768 18.5259C24.2074 17.6981 21.6318 19.4772 20.424 22.4996C19.2162 25.5221 19.8335 28.6432 21.8028 29.471Z" stroke="#F5F6FA" stroke-width="3.77998" stroke-linecap="round" stroke-linejoin="round"/>
<path d="M25.6257 17.9267V5.56793" stroke="#F5F6FA" stroke-width="3.7796"/>
<path d="M26.1926 19.0152L29.835 5.42166" stroke="#F5F6FA" stroke-width="3.7796"/>
<path d="M27.2415 18.5418L33.651 7.43997" stroke="#F5F6FA" stroke-width="3.7796"/>
<path d="M22.9611 30.7566L22.9611 43.1153" stroke="#F5F6FA" stroke-width="3.7796"/>
<path d="M22.3942 29.668L18.7518 43.2615" stroke="#F5F6FA" stroke-width="3.7796"/>
<path d="M21.3453 30.1414L14.9359 41.2432" stroke="#F5F6FA" stroke-width="3.7796"/>
</svg>
