<svg  viewBox="0 0 48 48" fill="none" xmlns="http://www.w3.org/2000/svg">
<path d="M24.0099 43.4483C34.6329 43.4483 43.2445 34.7404 43.2445 23.9986C43.2445 13.2568 34.6329 4.54887 24.0099 4.54887C13.3869 4.54887 4.7753 13.2568 4.7753 23.9986C4.7753 34.7404 13.3869 43.4483 24.0099 43.4483Z" stroke="#F5F6FA" stroke-width="3.41986" stroke-linecap="round" stroke-linejoin="round"/>
<path d="M24.0099 31.3867C28.0452 31.3867 31.3164 28.0789 31.3164 23.9986C31.3164 19.9183 28.0452 16.6105 24.0099 16.6105C19.9747 16.6105 16.7035 19.9183 16.7035 23.9986C16.7035 28.0789 19.9747 31.3867 24.0099 31.3867Z" stroke="#F5F6FA" stroke-width="3.7796" stroke-linecap="round" stroke-linejoin="round"/>
<path d="M4.79068 23.6981H16.3086" stroke="#F5F6FA" stroke-width="3.7796"/>
<path d="M31.777 23.6981H43.295" stroke="#F5F6FA" stroke-width="3.7796"/>
<path d="M21.9123 42.016C15.003 41.1417 9.20458 36.374 7.03008 29.7791C6.5695 28.3824 6.1246 26.1691 6.1246 25.2745C6.1246 25.1827 6.62659 25.1714 10.7106 25.1714H15.2966L15.3274 25.3221C15.3444 25.4049 15.3927 25.6385 15.4346 25.8411C16.0615 28.8665 18.2943 31.3959 21.1919 32.3637C22.1606 32.6872 22.9138 32.8056 24.0045 32.8056C25.8565 32.8056 27.333 32.3623 28.8575 31.3486C29.6492 30.8222 30.6469 29.8504 31.1507 29.1149C31.8542 28.0881 32.4263 26.7234 32.5932 25.6747L32.6731 25.1716H41.895L41.8514 25.6236C41.4422 29.8439 39.685 33.6762 36.7965 36.6484C33.9465 39.5809 30.6619 41.2845 26.5712 41.9518C25.6615 42.1002 22.8804 42.1387 21.9129 42.0163L21.9123 42.016Z" fill="#F5F6FA" stroke="#F5F6FA" stroke-width="0.337466" stroke-linecap="round" stroke-linejoin="round"/>
</svg>
